<svg width="70" height="45" viewBox="0 0 70 45" fill="none" xmlns="http://www.w3.org/2000/svg">
<path d="M59.9776 19.0413C60.7554 19.7358 60.7901 20.9372 60.0679 21.6872L48.4428 33.6179C47.7344 34.3401 47.7483 35.5068 48.4775 36.2082C49.1997 36.9166 50.3664 36.9027 51.0678 36.1735L62.6929 24.2428C64.8735 22.0067 64.7555 18.4024 62.429 16.3121L51.2761 6.2912L49.6997 9.80513L59.9846 19.0413H59.9776Z" fill="#F99F0F"/>
<path d="M50.9775 6.03448C50.6234 5.71503 50.172 5.56225 49.7275 5.5692L51.047 6.09698L50.9775 6.03448Z" fill="#F99F0F"/>
<path d="M21.2695 33.5351L9.81803 23.2503C9.04024 22.5558 9.00552 21.3544 9.72775 20.6044L21.3529 8.67369C22.0612 7.95146 22.0473 6.78478 21.3182 6.08338C20.5959 5.37504 19.4292 5.38893 18.7279 6.11811L7.10271 18.0488C4.92213 20.2849 5.04019 23.8891 7.36661 25.9795L18.8181 36.2643C19.5681 36.9379 20.7279 36.8754 21.4084 36.1254C22.0821 35.3754 22.0195 34.2157 21.2695 33.5351Z" fill="#F99F0F"/>
<path d="M51.3176 6.20146L51.0537 6.09729L51.2759 6.29868L51.3176 6.20146Z" fill="#F99F0F"/>
<path d="M48.388 6.17314C47.7144 6.92315 47.7769 8.08289 48.5269 8.76345L49.6936 9.81207L51.27 6.29814L51.0477 6.09675L49.7283 5.56897C49.2352 5.56897 48.7422 5.77731 48.388 6.17314Z" fill="#F99F0F"/>
<path d="M66.1454 12.1807L54.6939 1.89586C53.3327 0.673619 51.5827 0 49.7563 0C47.6591 0 45.659 0.895844 44.2562 2.45142C44.0549 2.67364 43.8743 2.90976 43.7076 3.15281L37.5895 0.701397L24.7769 29.2087L16.4157 21.7016L25.3394 12.5488C26.7144 11.1321 27.4644 9.27094 27.4366 7.2987C27.4088 5.32645 26.6172 3.47921 25.2074 2.10419C23.8185 0.750009 21.9852 0.00694452 20.0546 0.00694452C18.124 0.00694452 16.1448 0.819454 14.7629 2.23614L3.13773 14.1668C1.04743 16.3127 -0.0914708 19.2572 0.00575254 22.2503C0.102976 25.2433 1.44326 28.1045 3.66551 30.1045L15.117 40.3894C16.4782 41.6116 18.2282 42.2852 20.0546 42.2852C21.7074 42.2852 23.2977 41.7227 24.5894 40.7227L34.1034 44.5283L47.3188 15.1252L53.3952 20.5836L44.4715 29.7365C41.6312 32.6532 41.6868 37.3407 44.6104 40.188C45.9993 41.5421 47.8327 42.2852 49.7702 42.2852C51.7077 42.2852 53.68 41.4727 55.0619 40.056L66.6871 28.1253C68.7774 25.9795 69.9163 23.035 69.819 20.0419C69.7218 17.0488 68.3815 14.1877 66.1593 12.1876L66.1454 12.1807ZM18.8185 36.2643L7.36694 25.9795C5.04053 23.8892 4.92247 20.285 7.10305 18.0488L18.7282 6.11813C19.4365 5.3959 20.5963 5.37506 21.3185 6.0834C22.0407 6.79175 22.0616 7.95148 21.3532 8.67371L9.72809 20.6044C8.99891 21.3475 9.04057 22.5489 9.81836 23.2503L21.2699 33.5351C22.0199 34.2087 22.0824 35.3685 21.4088 36.1254C20.7352 36.8754 19.5754 36.9379 18.8185 36.2643ZM31.2075 37.3893L27.8047 36.0282L40.4715 7.84731L42.4785 8.65288L43.8743 9.21538L43.1799 10.764L31.2075 37.3963V37.3893ZM62.694 24.2503L51.0688 36.181C50.3605 36.9032 49.2008 36.924 48.4785 36.2157C47.7563 35.5074 47.7355 34.3476 48.4438 33.6254L60.0689 21.6947C60.7981 20.9516 60.7565 19.7502 59.9787 19.0488L49.6938 9.81261L48.5271 8.76399C47.7702 8.09037 47.7146 6.93064 48.3883 6.17368C48.7424 5.77784 49.2355 5.57645 49.7285 5.56951C50.173 5.56951 50.6174 5.71534 50.9785 6.03479L51.048 6.09729L51.3119 6.20146L51.2702 6.29868L62.4231 16.3196C64.7495 18.4099 64.8676 22.0141 62.687 24.2503H62.694Z" fill="#CB810B"/>
<path d="M42.4785 8.64554L40.4715 7.84692L27.8047 36.0278L31.2075 37.3889L43.1799 10.7567L43.8743 9.20805L42.4785 8.64554Z" fill="#F99F0F"/>
</svg>
