<svg width="112" height="88" viewBox="0 0 112 88" fill="none" xmlns="http://www.w3.org/2000/svg">
<path d="M55.0817 0C53.7672 0 52.443 0.0294274 51.1187 0.0980949C44.3108 0.470861 38.7879 4.69882 37.3852 10.6042C35.4036 18.9032 40.9657 24.5731 42.8001 26.437C43.1827 26.8195 43.4573 27.2217 43.6143 27.6141C43.7908 28.0556 43.8497 28.5166 43.7811 29.0071C43.683 29.8017 43.2906 30.6355 42.6529 31.4399C42.3783 31.7832 42.0349 31.9304 41.7995 31.9892C41.672 32.0187 41.5347 32.0383 41.3973 32.0383C41.2404 32.0383 41.0736 32.0187 40.9166 31.9696L31.0678 29.0267C28.89 28.3695 26.6338 28.0457 24.3678 28.0457C17.4422 28.0457 10.9187 31.0965 6.46518 36.433L5.11144 38.0614C-0.0484286 44.2611 -1.42173 52.1578 1.54078 58.6616C9.49639 76.1032 31.0089 87.8257 55.0915 87.8257C86.4039 87.8257 111.88 68.1279 111.88 43.9177C111.88 19.7076 86.4039 0.00980799 55.0915 0.00980799L55.0817 0ZM55.0817 79.978C33.5005 79.978 15.1859 69.6877 8.67234 55.4048C6.78889 51.2652 8.2211 46.5663 11.1248 43.0839L12.4785 41.4555C16.4416 36.7077 22.8669 34.7752 28.7919 36.5507L38.6506 39.5034C40.3378 40.0037 42.0742 40.0233 43.7026 39.6113C45.6547 39.1208 47.4498 38.0025 48.7643 36.3545C50.3241 34.4024 51.2658 32.2148 51.5503 30.0273C51.7857 28.2223 51.5699 26.4173 50.8832 24.7007C50.3437 23.3764 49.5197 22.1011 48.3916 20.9534C45.9981 18.5206 44.1735 15.9308 45.0073 12.4386C45.6841 9.60363 48.6368 8.10276 51.5405 7.9458C52.7078 7.88695 53.885 7.85752 55.072 7.85752C82.0975 7.85752 104.012 24.0042 104.012 43.9177C104.012 63.8313 82.0975 79.978 55.072 79.978H55.0817Z" fill="#6700E6"/>
<path d="M25.8499 41.3375C20.1603 41.3375 15.5498 45.9481 15.5498 51.6376C15.5498 57.3272 20.1603 61.9378 25.8499 61.9378C31.5395 61.9378 36.15 57.3272 36.15 51.6376C36.15 45.9481 31.5395 41.3375 25.8499 41.3375Z" fill="#6700E6"/>
<path d="M72.2182 54.2174C70.7468 54.2174 69.3636 54.6294 68.1963 55.3553C65.9793 56.7091 64.498 59.1615 64.498 61.9474C64.498 63.1442 64.7727 64.2723 65.2534 65.2827C65.7439 66.3029 66.4502 67.1956 67.3036 67.9117C68.0197 68.51 68.8437 68.9711 69.7462 69.285C70.5211 69.5499 71.355 69.6872 72.228 69.6872C76.4952 69.6872 79.958 66.2244 79.958 61.9572C79.958 57.69 76.4952 54.2272 72.228 54.2272L72.2182 54.2174Z" fill="#6700E6"/>
<path d="M81.1406 38.6556C83.9088 38.0023 85.6233 35.2285 84.9699 32.4603C84.3165 29.692 81.5428 27.9776 78.7745 28.6309C76.0063 29.2843 74.2919 32.0581 74.9452 34.8263C75.5986 37.5945 78.3723 39.309 81.1406 38.6556Z" fill="#6700E6"/>
<path d="M54.9639 56.0911C53.2864 54.9139 51.2461 54.2174 49.0389 54.2174C43.3493 54.2174 38.7388 58.8279 38.7388 64.5175C38.7388 70.2071 43.3493 74.8176 49.0389 74.8176C54.7285 74.8176 59.339 70.2071 59.339 64.5175C59.339 61.0253 57.6125 57.9451 54.9639 56.0812V56.0911Z" fill="#6700E6"/>
<path d="M86.2905 54.1183C89.0587 53.4649 90.7732 50.6912 90.1198 47.9229C89.4664 45.1547 86.6927 43.4402 83.9245 44.0936C81.1562 44.747 79.4418 47.5207 80.0951 50.289C80.7485 53.0572 83.5223 54.7716 86.2905 54.1183Z" fill="#6700E6"/>
<path d="M55.0827 7.84766C53.8958 7.84766 52.7186 7.87708 51.5513 7.93594C48.6476 8.0929 45.695 9.59377 45.0181 12.4288C44.1843 15.921 46.0088 18.5107 48.4024 20.9435C49.5305 22.0912 50.3545 23.3567 50.8941 24.6908C51.5807 26.3977 51.7965 28.2125 51.5611 30.0174C51.2766 32.2148 50.3349 34.3925 48.7752 36.3446C47.4607 37.9927 45.6655 39.111 43.7134 39.6015C42.085 40.0135 40.3389 39.9938 38.6614 39.4935L28.8027 36.5408C22.8777 34.7555 16.4524 36.688 12.4893 41.4457L11.1356 43.0741C8.23193 46.5663 6.79972 51.2651 8.68317 55.395C15.1968 69.668 33.5114 79.9681 55.0926 79.9681C82.1181 79.9681 104.033 63.8214 104.033 43.9079C104.033 23.9943 82.1181 7.84766 55.0926 7.84766H55.0827ZM25.85 61.938C20.1604 61.938 15.5499 57.3275 15.5499 51.6379C15.5499 45.9483 20.1604 41.3378 25.85 41.3378C31.5396 41.3378 36.1502 45.9483 36.1502 51.6379C36.1502 57.3275 31.5396 61.938 25.85 61.938ZM79.9502 28.4577C82.795 28.4577 85.1003 30.763 85.1003 33.6078C85.1003 36.4526 82.795 38.7578 79.9502 38.7578C77.1054 38.7578 74.8001 36.4526 74.8001 33.6078C74.8001 30.763 77.1054 28.4577 79.9502 28.4577ZM49.04 74.818C43.3504 74.818 38.7399 70.2075 38.7399 64.5179C38.7399 58.8283 43.3504 54.2178 49.04 54.2178C51.2472 54.2178 53.2876 54.9143 54.965 56.0914C57.6136 57.9553 59.3401 61.0355 59.3401 64.5277C59.3401 70.2271 54.7296 74.8279 49.04 74.8279V74.818ZM72.2202 69.668C71.357 69.668 70.5231 69.5307 69.7383 69.2658C68.8358 68.9519 68.0119 68.4908 67.2957 67.8924C66.4423 67.1763 65.736 66.2837 65.2456 65.2635C64.7551 64.2531 64.4902 63.1348 64.4902 61.9282C64.4902 59.1422 65.9715 56.6996 68.1885 55.3361C69.3558 54.6102 70.7389 54.1982 72.2104 54.1982C76.4776 54.1982 79.9404 57.661 79.9404 61.9282C79.9404 66.1954 76.4776 69.6582 72.2104 69.6582L72.2202 69.668ZM85.1003 54.2178C82.2555 54.2178 79.9502 51.9125 79.9502 49.0677C79.9502 46.2229 82.2555 43.9177 85.1003 43.9177C87.9451 43.9177 90.2503 46.2229 90.2503 49.0677C90.2503 51.9125 87.9451 54.2178 85.1003 54.2178Z" fill="#811AFF"/>
</svg>
