<svg width="73" height="73" viewBox="0 0 73 73" fill="none" xmlns="http://www.w3.org/2000/svg">
<path d="M69.0425 3.77782C66.6049 1.34029 63.3688 0 59.9243 0C56.4798 0 53.2437 1.34029 50.8131 3.77782L47.0908 7.50009C45.5353 6.40285 43.6672 5.79868 41.7505 5.79868C41.2227 5.79868 40.6949 5.84729 40.1602 5.93757C38.0491 6.30563 36.1185 7.41675 34.7226 9.0626L29.9865 14.646C28.3892 16.521 27.6253 18.903 27.8198 21.3614C27.9378 22.8336 28.3961 24.2156 29.1462 25.4378L3.77088 50.8131C-1.25696 55.8409 -1.25696 64.0146 3.77088 69.0425C6.20841 71.48 9.44455 72.8203 12.8821 72.8203C16.3196 72.8203 19.5627 71.48 21.9933 69.0425L48.5839 42.4519C50.1117 43.4936 51.9242 44.063 53.7854 44.063C56.5007 44.063 59.0702 42.8755 60.8271 40.7991L65.5702 35.2018C67.1674 33.3198 67.9314 30.924 67.723 28.4726C67.605 27.0628 67.1744 25.7295 66.4799 24.5489L69.0355 22.0003C74.0633 16.9724 74.0633 8.79871 69.0355 3.77088L69.0425 3.77782ZM48.9103 35.5074L34.6462 23.4169C33.1046 22.1044 32.9101 19.7919 34.2226 18.2502L38.9657 12.6599C39.5421 11.9793 40.313 11.5557 41.1255 11.4168C42.1602 11.2362 43.2713 11.5001 44.1325 12.2363L47.4311 15.0279L54.7437 7.71537C57.6049 4.84728 62.2507 4.84728 65.1119 7.71537C67.98 10.5835 67.98 15.2224 65.1119 18.0835L58.6535 24.5419L60.9174 26.4586C62.466 27.7642 62.6535 30.0767 61.341 31.6254L56.5979 37.2157C55.2854 38.7643 52.9728 38.9588 51.4312 37.6463L48.2505 34.9448" fill="#D40C3E"/>
<path d="M65.1119 7.70874C62.2507 4.84066 57.6049 4.84066 54.7437 7.70874L47.4311 15.0213L44.1325 12.2296C43.2644 11.5005 42.1602 11.2366 41.1255 11.4102C40.313 11.556 39.5421 11.9727 38.9657 12.6532L34.2226 18.2436C32.9101 19.7853 33.1046 22.0978 34.6463 23.4103L37.0213 25.4242L7.70152 54.744C4.84038 57.6051 4.84038 62.251 7.70152 65.1191C10.5627 67.9803 15.2085 67.9803 18.0697 65.1191L48.2436 34.9452L51.4242 37.6466C52.9728 38.9591 55.2854 38.7647 56.5909 37.216L61.3341 31.6257C62.6466 30.0771 62.4521 27.7645 60.9105 26.459L58.6465 24.5423L65.1049 18.0839C67.973 15.2158 67.973 10.5768 65.1049 7.71569L65.1119 7.70874ZM15.4863 62.5219C14.0557 63.9524 11.7293 63.9524 10.2988 62.5219C8.8682 61.0913 8.8682 58.7649 10.2988 57.3343L39.8338 27.7993L45.445 32.5563L15.4863 62.5149V62.5219Z" fill="#F90F4A"/>
</svg>
