<svg width="59" height="67" viewBox="0 0 59 67" fill="none" xmlns="http://www.w3.org/2000/svg">
<path d="M52.6217 27.4591L52.7601 23.8356H52.7314L53.0257 17.9791L58.0108 10.3397L49.4886 7.097L43.7707 0L38.0526 7.097L29.5304 10.3397L31.6884 13.6516L26.282 11.5918L19.3985 3.04652L12.515 11.5918L2.25606 15.4922L8.25679 24.6837L8.80491 35.6466L19.3985 32.7789L21.2796 33.2925L0 55.6913L11.1071 66.256L39.4835 36.3909L39.8067 42.8994L46.8172 41.0011L53.8276 42.8994L54.1911 35.6466L58.1609 29.5766L52.6217 27.4591Z" fill="#10AAB8"/>
<path d="M43.7711 7.35663L40.863 10.9686L36.5298 12.6188L39.0627 16.502L39.2936 21.1352L43.7711 19.9235L48.2485 21.1352L48.4793 16.502L51.0123 12.6188L46.6791 10.9686L43.7711 7.35663Z" fill="#00D5E8"/>
<path d="M15.3254 15.4636L19.399 10.4034L23.4725 15.4636L29.5367 17.7716L25.9882 23.2126L25.6651 29.698L19.399 28.0016L13.1328 29.698L12.8097 23.2126L9.26123 17.7716L15.3254 15.4636Z" fill="#00D5E8"/>
<path d="M45.0685 30.8463L46.8169 28.6826L48.565 30.8463L51.1673 31.8387L49.6441 34.164L49.5056 36.9451L46.8169 36.2181L44.128 36.9451L43.9895 34.164L42.4663 31.8387L45.0685 30.8463Z" fill="#00D5E8"/>
<path d="M35.4678 25.0589L6.52588 55.5241L10.9457 59.7246L39.8876 29.2594L35.4678 25.0589Z" fill="#00D5E8"/>
</svg>
