<svg width="33" height="33" viewBox="0 0 33 33" fill="none" xmlns="http://www.w3.org/2000/svg">
<path d="M1.43459 12.9489L6.44298 18.2238L19.4632 31.9386L28.057 32.9261C28.1997 32.9411 28.3424 32.9523 28.485 32.9523C29.5438 32.9523 30.5575 32.5018 31.2708 31.7134C31.9804 30.925 32.3258 29.87 32.2132 28.815L31.3534 20.5854L13.3623 1.63317C12.3787 0.596956 10.9933 5.77246e-06 9.56287 5.64741e-06C8.21504 5.52958e-06 6.93479 0.510603 5.9549 1.43794L1.62983 5.54149C-0.465128 7.53132 -0.551485 10.854 1.43459 12.9489ZM28.4662 21.9107L29.2209 29.1228C29.2697 29.5959 28.868 29.9939 28.3949 29.9413L20.8861 29.0815L7.52049 15.0026L11.2223 11.297L14.8978 7.61767L28.4662 21.9107ZM3.69474 7.71904L8.01981 3.61549C8.91711 2.767 10.3288 2.80078 11.181 3.69808L13.8767 6.53641L10.1748 10.242L6.49927 13.9213L3.61216 10.8802C2.76366 9.98294 2.79744 8.57129 3.69474 7.71904Z" fill="#D40C88"/>
<path d="M6.49543 13.9175L10.1709 10.2382L13.8728 6.53258L11.1771 3.69426C10.3287 2.79696 8.91323 2.76317 8.01593 3.61167L3.69086 7.71522C2.79356 8.56371 2.75978 9.97912 3.60827 10.8764L6.49543 13.9175Z" fill="#FF00C8"/>
<path d="M7.52433 14.9988L20.89 29.0778L28.3988 29.9375C28.8718 29.9901 29.2735 29.5921 29.2247 29.1191L28.4701 21.9069L14.9017 7.61389L11.2262 11.2932L7.52433 14.9988Z" fill="#FF00C8"/>
</svg>
