<svg width="137" height="54" viewBox="0 0 137 54" fill="none" xmlns="http://www.w3.org/2000/svg">
<rect x="4.5" y="4.5" width="128" height="45" fill="#CB810B"/>
<rect x="4.5" y="4.5" width="128" height="45" stroke="#F99F0F"/>
<path d="M15.224 34V21.292H18.05V34H15.224ZM17.384 34V31.552H24.35V34H17.384ZM17.384 28.69V26.332H23.72V28.69H17.384ZM17.384 23.722V21.292H24.26V23.722H17.384ZM32.4642 34L30.3582 30.598L29.7642 30.22L26.3262 25.252H29.5482L31.5102 28.438L32.0862 28.798L35.6502 34H32.4642ZM26.1642 34L29.7462 28.906L31.3122 30.67L29.1702 34H26.1642ZM32.0682 30.202L30.5022 28.438L32.4822 25.252H35.4702L32.0682 30.202ZM42.7366 34.18C42.1486 34.18 41.6086 34.066 41.1166 33.838C40.6246 33.61 40.2226 33.298 39.9106 32.902C39.5986 32.494 39.4186 32.032 39.3706 31.516V27.826C39.4186 27.31 39.5986 26.842 39.9106 26.422C40.2226 26.002 40.6246 25.672 41.1166 25.432C41.6086 25.192 42.1486 25.072 42.7366 25.072C43.5646 25.072 44.2966 25.27 44.9326 25.666C45.5806 26.062 46.0846 26.602 46.4446 27.286C46.8166 27.97 47.0026 28.75 47.0026 29.626C47.0026 30.502 46.8166 31.282 46.4446 31.966C46.0846 32.65 45.5806 33.19 44.9326 33.586C44.2966 33.982 43.5646 34.18 42.7366 34.18ZM37.6966 37.69V25.252H40.4506V27.502L40.0006 29.626L40.4146 31.75V37.69H37.6966ZM42.2326 31.696C42.6286 31.696 42.9706 31.606 43.2586 31.426C43.5586 31.246 43.7926 31 43.9606 30.688C44.1286 30.376 44.2126 30.022 44.2126 29.626C44.2126 29.218 44.1286 28.858 43.9606 28.546C43.7926 28.234 43.5586 27.994 43.2586 27.826C42.9706 27.646 42.6346 27.556 42.2506 27.556C41.8666 27.556 41.5246 27.646 41.2246 27.826C40.9366 27.994 40.7086 28.234 40.5406 28.546C40.3726 28.858 40.2886 29.218 40.2886 29.626C40.2886 30.022 40.3666 30.376 40.5226 30.688C40.6906 31 40.9246 31.246 41.2246 31.426C41.5246 31.606 41.8606 31.696 42.2326 31.696ZM53.7217 34.198C52.7737 34.198 51.9277 34.006 51.1837 33.622C50.4517 33.226 49.8757 32.68 49.4557 31.984C49.0357 31.288 48.8257 30.502 48.8257 29.626C48.8257 28.75 49.0297 27.97 49.4377 27.286C49.8577 26.59 50.4217 26.044 51.1297 25.648C51.8377 25.252 52.6357 25.054 53.5237 25.054C54.3877 25.054 55.1497 25.24 55.8097 25.612C56.4697 25.984 56.9857 26.5 57.3577 27.16C57.7417 27.82 57.9337 28.576 57.9337 29.428C57.9337 29.584 57.9217 29.752 57.8977 29.932C57.8857 30.1 57.8557 30.298 57.8077 30.526L50.2657 30.544V28.654L56.6377 28.636L55.4497 29.428C55.4377 28.924 55.3597 28.51 55.2157 28.186C55.0717 27.85 54.8557 27.598 54.5677 27.43C54.2917 27.25 53.9497 27.16 53.5417 27.16C53.1097 27.16 52.7317 27.262 52.4077 27.466C52.0957 27.658 51.8497 27.934 51.6697 28.294C51.5017 28.654 51.4177 29.092 51.4177 29.608C51.4177 30.124 51.5077 30.568 51.6877 30.94C51.8797 31.3 52.1437 31.582 52.4797 31.786C52.8277 31.978 53.2357 32.074 53.7037 32.074C54.1357 32.074 54.5257 32.002 54.8737 31.858C55.2217 31.702 55.5277 31.474 55.7917 31.174L57.3037 32.686C56.8717 33.19 56.3497 33.568 55.7377 33.82C55.1257 34.072 54.4537 34.198 53.7217 34.198ZM60.263 34V25.252H63.017V34H60.263ZM63.017 29.194L61.865 28.294C62.093 27.274 62.477 26.482 63.017 25.918C63.557 25.354 64.307 25.072 65.267 25.072C65.687 25.072 66.053 25.138 66.365 25.27C66.689 25.39 66.971 25.582 67.211 25.846L65.573 27.916C65.453 27.784 65.303 27.682 65.123 27.61C64.943 27.538 64.739 27.502 64.511 27.502C64.055 27.502 63.689 27.646 63.413 27.934C63.149 28.21 63.017 28.63 63.017 29.194ZM68.9447 34V25.252H71.6987V34H68.9447ZM70.3307 24.046C69.8987 24.046 69.5387 23.902 69.2507 23.614C68.9747 23.314 68.8367 22.954 68.8367 22.534C68.8367 22.102 68.9747 21.742 69.2507 21.454C69.5387 21.166 69.8987 21.022 70.3307 21.022C70.7627 21.022 71.1167 21.166 71.3927 21.454C71.6687 21.742 71.8067 22.102 71.8067 22.534C71.8067 22.954 71.6687 23.314 71.3927 23.614C71.1167 23.902 70.7627 24.046 70.3307 24.046ZM78.958 34.198C78.01 34.198 77.164 34.006 76.42 33.622C75.688 33.226 75.112 32.68 74.692 31.984C74.272 31.288 74.062 30.502 74.062 29.626C74.062 28.75 74.266 27.97 74.674 27.286C75.094 26.59 75.658 26.044 76.366 25.648C77.074 25.252 77.872 25.054 78.76 25.054C79.624 25.054 80.386 25.24 81.046 25.612C81.706 25.984 82.222 26.5 82.594 27.16C82.978 27.82 83.17 28.576 83.17 29.428C83.17 29.584 83.158 29.752 83.134 29.932C83.122 30.1 83.092 30.298 83.044 30.526L75.502 30.544V28.654L81.874 28.636L80.686 29.428C80.674 28.924 80.596 28.51 80.452 28.186C80.308 27.85 80.092 27.598 79.804 27.43C79.528 27.25 79.186 27.16 78.778 27.16C78.346 27.16 77.968 27.262 77.644 27.466C77.332 27.658 77.086 27.934 76.906 28.294C76.738 28.654 76.654 29.092 76.654 29.608C76.654 30.124 76.744 30.568 76.924 30.94C77.116 31.3 77.38 31.582 77.716 31.786C78.064 31.978 78.472 32.074 78.94 32.074C79.372 32.074 79.762 32.002 80.11 31.858C80.458 31.702 80.764 31.474 81.028 31.174L82.54 32.686C82.108 33.19 81.586 33.568 80.974 33.82C80.362 34.072 79.69 34.198 78.958 34.198ZM76.24 24.334L75.34 23.146L77.968 20.536H79.552L82.18 23.146L81.28 24.334L77.734 22.138H79.822L76.24 24.334ZM91.2773 34V29.014C91.2773 28.558 91.1333 28.192 90.8453 27.916C90.5693 27.628 90.2153 27.484 89.7833 27.484C89.4833 27.484 89.2193 27.55 88.9913 27.682C88.7633 27.802 88.5833 27.982 88.4513 28.222C88.3193 28.45 88.2533 28.714 88.2533 29.014L87.1913 28.492C87.1913 27.808 87.3413 27.208 87.6413 26.692C87.9413 26.176 88.3553 25.78 88.8833 25.504C89.4233 25.216 90.0293 25.072 90.7013 25.072C91.3493 25.072 91.9193 25.228 92.4113 25.54C92.9153 25.84 93.3113 26.242 93.5993 26.746C93.8873 27.25 94.0313 27.802 94.0313 28.402V34H91.2773ZM85.4993 34V25.252H88.2533V34H85.4993ZM101.03 34.198C100.13 34.198 99.3141 34 98.5821 33.604C97.8501 33.208 97.2741 32.662 96.8541 31.966C96.4341 31.27 96.2241 30.49 96.2241 29.626C96.2241 28.75 96.4341 27.97 96.8541 27.286C97.2861 26.59 97.8681 26.044 98.6001 25.648C99.3321 25.252 100.154 25.054 101.066 25.054C101.75 25.054 102.374 25.174 102.938 25.414C103.514 25.642 104.024 25.99 104.468 26.458L102.704 28.222C102.5 27.994 102.26 27.826 101.984 27.718C101.72 27.61 101.414 27.556 101.066 27.556C100.67 27.556 100.316 27.646 100.004 27.826C99.7041 27.994 99.4641 28.234 99.2841 28.546C99.1161 28.846 99.0321 29.2 99.0321 29.608C99.0321 30.016 99.1161 30.376 99.2841 30.688C99.4641 31 99.7101 31.246 100.022 31.426C100.334 31.606 100.682 31.696 101.066 31.696C101.426 31.696 101.744 31.636 102.02 31.516C102.308 31.384 102.554 31.204 102.758 30.976L104.504 32.74C104.048 33.22 103.532 33.586 102.956 33.838C102.38 34.078 101.738 34.198 101.03 34.198ZM106.73 34V25.252H109.484V34H106.73ZM108.116 24.046C107.684 24.046 107.324 23.902 107.036 23.614C106.76 23.314 106.622 22.954 106.622 22.534C106.622 22.102 106.76 21.742 107.036 21.454C107.324 21.166 107.684 21.022 108.116 21.022C108.548 21.022 108.902 21.166 109.178 21.454C109.454 21.742 109.592 22.102 109.592 22.534C109.592 22.954 109.454 23.314 109.178 23.614C108.902 23.902 108.548 24.046 108.116 24.046ZM116.077 34.18C115.273 34.18 114.553 33.982 113.917 33.586C113.293 33.19 112.795 32.65 112.423 31.966C112.063 31.282 111.883 30.502 111.883 29.626C111.883 28.75 112.063 27.97 112.423 27.286C112.795 26.602 113.293 26.062 113.917 25.666C114.553 25.27 115.273 25.072 116.077 25.072C116.665 25.072 117.193 25.186 117.661 25.414C118.141 25.642 118.531 25.96 118.831 26.368C119.131 26.764 119.299 27.22 119.335 27.736V31.516C119.299 32.032 119.131 32.494 118.831 32.902C118.543 33.298 118.159 33.61 117.679 33.838C117.199 34.066 116.665 34.18 116.077 34.18ZM116.635 31.696C117.223 31.696 117.697 31.504 118.057 31.12C118.417 30.724 118.597 30.226 118.597 29.626C118.597 29.218 118.513 28.858 118.345 28.546C118.189 28.234 117.961 27.994 117.661 27.826C117.373 27.646 117.037 27.556 116.653 27.556C116.269 27.556 115.927 27.646 115.627 27.826C115.339 27.994 115.105 28.234 114.925 28.546C114.757 28.858 114.673 29.218 114.673 29.626C114.673 30.022 114.757 30.376 114.925 30.688C115.093 31 115.327 31.246 115.627 31.426C115.927 31.606 116.263 31.696 116.635 31.696ZM118.489 34V31.642L118.903 29.518L118.489 27.394V25.252H121.189V34H118.489Z" fill="white"/>
<rect x="129" y="0.5" width="7" height="7" fill="white" stroke="#F99F0F"/>
<rect x="129" y="46.5" width="7" height="7" fill="white" stroke="#F99F0F"/>
<rect x="0.5" y="46.5" width="7" height="7" fill="white" stroke="#F99F0F"/>
<rect x="0.5" y="0.5" width="7" height="7" fill="white" stroke="#F99F0F"/>
</svg>
