<svg width="137" height="54" viewBox="0 0 137 54" fill="none" xmlns="http://www.w3.org/2000/svg">
<rect x="4.5" y="4.5" width="128" height="45" fill="#10AAB8"/>
<rect x="4.5" y="4.5" width="128" height="45" stroke="#00D5E8"/>
<path d="M15.224 34V21.292H18.05V34H15.224ZM23.09 34V21.292H25.934V34H23.09ZM16.916 28.69V26.242H24.026V28.69H16.916ZM32.7744 34.18C31.9704 34.18 31.2504 33.982 30.6144 33.586C29.9904 33.19 29.4924 32.65 29.1204 31.966C28.7604 31.282 28.5804 30.502 28.5804 29.626C28.5804 28.75 28.7604 27.97 29.1204 27.286C29.4924 26.602 29.9904 26.062 30.6144 25.666C31.2504 25.27 31.9704 25.072 32.7744 25.072C33.3624 25.072 33.8904 25.186 34.3584 25.414C34.8384 25.642 35.2284 25.96 35.5284 26.368C35.8284 26.764 35.9964 27.22 36.0324 27.736V31.516C35.9964 32.032 35.8284 32.494 35.5284 32.902C35.2404 33.298 34.8564 33.61 34.3764 33.838C33.8964 34.066 33.3624 34.18 32.7744 34.18ZM33.3324 31.696C33.9204 31.696 34.3944 31.504 34.7544 31.12C35.1144 30.724 35.2944 30.226 35.2944 29.626C35.2944 29.218 35.2104 28.858 35.0424 28.546C34.8864 28.234 34.6584 27.994 34.3584 27.826C34.0704 27.646 33.7344 27.556 33.3504 27.556C32.9664 27.556 32.6244 27.646 32.3244 27.826C32.0364 27.994 31.8024 28.234 31.6224 28.546C31.4544 28.858 31.3704 29.218 31.3704 29.626C31.3704 30.022 31.4544 30.376 31.6224 30.688C31.7904 31 32.0244 31.246 32.3244 31.426C32.6244 31.606 32.9604 31.696 33.3324 31.696ZM35.1864 34V31.642L35.6004 29.518L35.1864 27.394V25.252H37.8864V34H35.1864ZM45.8655 34.18C45.2775 34.18 44.7375 34.06 44.2455 33.82C43.7535 33.568 43.3515 33.238 43.0395 32.83C42.7275 32.41 42.5475 31.942 42.4995 31.426V27.736C42.5475 27.22 42.7275 26.764 43.0395 26.368C43.3515 25.96 43.7535 25.642 44.2455 25.414C44.7375 25.186 45.2775 25.072 45.8655 25.072C46.6935 25.072 47.4255 25.27 48.0615 25.666C48.7095 26.062 49.2135 26.602 49.5735 27.286C49.9455 27.97 50.1315 28.75 50.1315 29.626C50.1315 30.502 49.9455 31.282 49.5735 31.966C49.2135 32.65 48.7095 33.19 48.0615 33.586C47.4255 33.982 46.6935 34.18 45.8655 34.18ZM40.8255 34V20.932H43.5795V27.394L43.1295 29.518L43.5435 31.642V34H40.8255ZM45.3795 31.696C45.7635 31.696 46.0995 31.606 46.3875 31.426C46.6875 31.246 46.9215 31 47.0895 30.688C47.2575 30.376 47.3415 30.022 47.3415 29.626C47.3415 29.218 47.2575 28.858 47.0895 28.546C46.9215 28.234 46.6875 27.994 46.3875 27.826C46.0995 27.646 45.7635 27.556 45.3795 27.556C44.9955 27.556 44.6535 27.646 44.3535 27.826C44.0535 27.994 43.8195 28.234 43.6515 28.546C43.4955 28.858 43.4175 29.218 43.4175 29.626C43.4175 30.034 43.5015 30.394 43.6695 30.706C43.8375 31.018 44.0655 31.264 44.3535 31.444C44.6535 31.612 44.9955 31.696 45.3795 31.696ZM52.5306 34V25.252H55.2846V34H52.5306ZM53.9166 24.046C53.4846 24.046 53.1246 23.902 52.8366 23.614C52.5606 23.314 52.4226 22.954 52.4226 22.534C52.4226 22.102 52.5606 21.742 52.8366 21.454C53.1246 21.166 53.4846 21.022 53.9166 21.022C54.3486 21.022 54.7026 21.166 54.9786 21.454C55.2546 21.742 55.3926 22.102 55.3926 22.534C55.3926 22.954 55.2546 23.314 54.9786 23.614C54.7026 23.902 54.3486 24.046 53.9166 24.046ZM58.224 34V20.932H60.978V34H58.224ZM63.9173 34V25.252H66.6713V34H63.9173ZM65.3033 24.046C64.8713 24.046 64.5113 23.902 64.2233 23.614C63.9473 23.314 63.8093 22.954 63.8093 22.534C63.8093 22.102 63.9473 21.742 64.2233 21.454C64.5113 21.166 64.8713 21.022 65.3033 21.022C65.7353 21.022 66.0893 21.166 66.3653 21.454C66.6413 21.742 66.7793 22.102 66.7793 22.534C66.7793 22.954 66.6413 23.314 66.3653 23.614C66.0893 23.902 65.7353 24.046 65.3033 24.046ZM73.3367 34.18C72.5087 34.18 71.7707 33.982 71.1227 33.586C70.4867 33.19 69.9827 32.65 69.6107 31.966C69.2507 31.282 69.0707 30.502 69.0707 29.626C69.0707 28.75 69.2507 27.97 69.6107 27.286C69.9827 26.602 70.4867 26.062 71.1227 25.666C71.7707 25.27 72.5087 25.072 73.3367 25.072C73.9367 25.072 74.4767 25.186 74.9567 25.414C75.4487 25.642 75.8507 25.96 76.1627 26.368C76.4867 26.764 76.6667 27.22 76.7027 27.736V31.426C76.6667 31.942 76.4927 32.41 76.1807 32.83C75.8687 33.238 75.4667 33.568 74.9747 33.82C74.4827 34.06 73.9367 34.18 73.3367 34.18ZM73.8227 31.696C74.2187 31.696 74.5607 31.612 74.8487 31.444C75.1367 31.264 75.3647 31.018 75.5327 30.706C75.7007 30.394 75.7847 30.034 75.7847 29.626C75.7847 29.218 75.7007 28.864 75.5327 28.564C75.3767 28.252 75.1487 28.006 74.8487 27.826C74.5607 27.646 74.2247 27.556 73.8407 27.556C73.4567 27.556 73.1147 27.646 72.8147 27.826C72.5267 28.006 72.2927 28.252 72.1127 28.564C71.9447 28.876 71.8607 29.23 71.8607 29.626C71.8607 30.022 71.9447 30.376 72.1127 30.688C72.2807 31 72.5147 31.246 72.8147 31.426C73.1147 31.606 73.4507 31.696 73.8227 31.696ZM78.3767 34H75.6767V31.642L76.0907 29.518L75.6227 27.394V20.932H78.3767V34ZM84.9697 34.18C84.1658 34.18 83.4458 33.982 82.8098 33.586C82.1858 33.19 81.6878 32.65 81.3158 31.966C80.9558 31.282 80.7758 30.502 80.7758 29.626C80.7758 28.75 80.9558 27.97 81.3158 27.286C81.6878 26.602 82.1858 26.062 82.8098 25.666C83.4458 25.27 84.1658 25.072 84.9697 25.072C85.5578 25.072 86.0858 25.186 86.5538 25.414C87.0338 25.642 87.4238 25.96 87.7238 26.368C88.0238 26.764 88.1918 27.22 88.2278 27.736V31.516C88.1918 32.032 88.0238 32.494 87.7238 32.902C87.4358 33.298 87.0518 33.61 86.5718 33.838C86.0918 34.066 85.5578 34.18 84.9697 34.18ZM85.5278 31.696C86.1158 31.696 86.5898 31.504 86.9498 31.12C87.3098 30.724 87.4898 30.226 87.4898 29.626C87.4898 29.218 87.4058 28.858 87.2378 28.546C87.0818 28.234 86.8538 27.994 86.5538 27.826C86.2658 27.646 85.9298 27.556 85.5458 27.556C85.1618 27.556 84.8198 27.646 84.5198 27.826C84.2318 27.994 83.9978 28.234 83.8178 28.546C83.6498 28.858 83.5658 29.218 83.5658 29.626C83.5658 30.022 83.6498 30.376 83.8178 30.688C83.9858 31 84.2198 31.246 84.5198 31.426C84.8198 31.606 85.1558 31.696 85.5278 31.696ZM87.3818 34V31.642L87.7958 29.518L87.3818 27.394V25.252H90.0818V34H87.3818ZM96.7468 34.18C95.9188 34.18 95.1808 33.982 94.5328 33.586C93.8968 33.19 93.3928 32.65 93.0208 31.966C92.6608 31.282 92.4808 30.502 92.4808 29.626C92.4808 28.75 92.6608 27.97 93.0208 27.286C93.3928 26.602 93.8968 26.062 94.5328 25.666C95.1808 25.27 95.9188 25.072 96.7468 25.072C97.3468 25.072 97.8868 25.186 98.3668 25.414C98.8588 25.642 99.2608 25.96 99.5728 26.368C99.8968 26.764 100.077 27.22 100.113 27.736V31.426C100.077 31.942 99.9028 32.41 99.5908 32.83C99.2788 33.238 98.8768 33.568 98.3848 33.82C97.8928 34.06 97.3468 34.18 96.7468 34.18ZM97.2328 31.696C97.6288 31.696 97.9708 31.612 98.2588 31.444C98.5468 31.264 98.7748 31.018 98.9428 30.706C99.1108 30.394 99.1948 30.034 99.1948 29.626C99.1948 29.218 99.1108 28.864 98.9428 28.564C98.7868 28.252 98.5588 28.006 98.2588 27.826C97.9708 27.646 97.6348 27.556 97.2508 27.556C96.8668 27.556 96.5248 27.646 96.2248 27.826C95.9368 28.006 95.7028 28.252 95.5228 28.564C95.3548 28.876 95.2708 29.23 95.2708 29.626C95.2708 30.022 95.3548 30.376 95.5228 30.688C95.6908 31 95.9248 31.246 96.2248 31.426C96.5248 31.606 96.8608 31.696 97.2328 31.696ZM101.787 34H99.0868V31.642L99.5008 29.518L99.0328 27.394V20.932H101.787V34ZM109.046 34.198C108.098 34.198 107.252 34.006 106.508 33.622C105.776 33.226 105.2 32.68 104.78 31.984C104.36 31.288 104.15 30.502 104.15 29.626C104.15 28.75 104.354 27.97 104.762 27.286C105.182 26.59 105.746 26.044 106.454 25.648C107.162 25.252 107.96 25.054 108.848 25.054C109.712 25.054 110.474 25.24 111.134 25.612C111.794 25.984 112.31 26.5 112.682 27.16C113.066 27.82 113.258 28.576 113.258 29.428C113.258 29.584 113.246 29.752 113.222 29.932C113.21 30.1 113.18 30.298 113.132 30.526L105.59 30.544V28.654L111.962 28.636L110.774 29.428C110.762 28.924 110.684 28.51 110.54 28.186C110.396 27.85 110.18 27.598 109.892 27.43C109.616 27.25 109.274 27.16 108.866 27.16C108.434 27.16 108.056 27.262 107.732 27.466C107.42 27.658 107.174 27.934 106.994 28.294C106.826 28.654 106.742 29.092 106.742 29.608C106.742 30.124 106.832 30.568 107.012 30.94C107.204 31.3 107.468 31.582 107.804 31.786C108.152 31.978 108.56 32.074 109.028 32.074C109.46 32.074 109.85 32.002 110.198 31.858C110.546 31.702 110.852 31.474 111.116 31.174L112.628 32.686C112.196 33.19 111.674 33.568 111.062 33.82C110.45 34.072 109.778 34.198 109.046 34.198ZM118.773 34.216C118.257 34.216 117.747 34.15 117.243 34.018C116.751 33.886 116.289 33.7 115.857 33.46C115.437 33.208 115.077 32.92 114.777 32.596L116.343 31.012C116.631 31.324 116.973 31.57 117.369 31.75C117.765 31.918 118.197 32.002 118.665 32.002C118.989 32.002 119.235 31.954 119.403 31.858C119.583 31.762 119.673 31.63 119.673 31.462C119.673 31.246 119.565 31.084 119.349 30.976C119.145 30.856 118.881 30.754 118.557 30.67C118.233 30.574 117.891 30.472 117.531 30.364C117.171 30.256 116.829 30.106 116.505 29.914C116.181 29.722 115.917 29.458 115.713 29.122C115.509 28.774 115.407 28.336 115.407 27.808C115.407 27.244 115.551 26.758 115.839 26.35C116.127 25.93 116.535 25.6 117.063 25.36C117.591 25.12 118.209 25 118.917 25C119.661 25 120.345 25.132 120.969 25.396C121.605 25.648 122.121 26.026 122.517 26.53L120.951 28.114C120.675 27.79 120.363 27.562 120.015 27.43C119.679 27.298 119.349 27.232 119.025 27.232C118.713 27.232 118.479 27.28 118.323 27.376C118.167 27.46 118.089 27.586 118.089 27.754C118.089 27.934 118.191 28.078 118.395 28.186C118.599 28.294 118.863 28.39 119.187 28.474C119.511 28.558 119.853 28.66 120.213 28.78C120.573 28.9 120.915 29.062 121.239 29.266C121.563 29.47 121.827 29.746 122.031 30.094C122.235 30.43 122.337 30.874 122.337 31.426C122.337 32.278 122.013 32.956 121.365 33.46C120.729 33.964 119.865 34.216 118.773 34.216Z" fill="white"/>
<rect x="129.5" y="0.5" width="7" height="7" fill="white" stroke="#00D5E8"/>
<rect x="129.5" y="46.5" width="7" height="7" fill="white" stroke="#00D5E8"/>
<rect x="0.5" y="46.5" width="7" height="7" fill="white" stroke="#00D5E8"/>
<rect x="0.5" y="0.5" width="7" height="7" fill="white" stroke="#00D5E8"/>
</svg>
