<svg width="149" height="44" viewBox="0 0 149 44" fill="none" xmlns="http://www.w3.org/2000/svg">
<rect x="29.5" y="12.5" width="119" height="31" rx="15.5" fill="#CEE727"/>
<rect x="29.5" y="12.5" width="119" height="31" rx="15.5" stroke="#A2B810"/>
<path d="M56.0443 25.664L55.6763 27.552H56.9563V28.464H55.5003L55.0043 31.088H56.4763V32H54.8283L54.4443 34H53.4363L53.8203 32H51.0043L50.6203 34H49.6123L49.9963 32H48.7643V31.088H50.1723L50.6683 28.464H49.2443V27.552H50.8443L51.2123 25.664H52.2203L51.8523 27.552H54.6683L55.0363 25.664H56.0443ZM51.1803 31.088H53.9963L54.4923 28.464H51.6763L51.1803 31.088ZM71.0814 24.624H69.7214V32.976H71.0174V34H67.3214V32.976H68.5374V26.352H68.4734L64.9854 33.472H64.3614L60.7934 26.304H60.7294V32.976H61.9774V34H58.2974V32.976H59.6094V24.624H58.2494V23.6H60.6334L64.6814 31.744H64.7454L68.6814 23.6H71.0814V24.624ZM72.8585 27.424C73.2318 27.1787 73.6265 27.0027 74.0425 26.896C74.4585 26.7893 74.9012 26.736 75.3705 26.736C77.0665 26.736 77.9145 27.5307 77.9145 29.12V32.512C77.9145 33.024 78.1172 33.28 78.5225 33.28C78.7038 33.28 78.8638 33.248 79.0025 33.184L79.0185 33.92C78.7305 34.08 78.4212 34.16 78.0905 34.16C77.2478 34.16 76.8158 33.68 76.7945 32.72V32.688C76.5705 33.072 76.2505 33.4133 75.8345 33.712C75.4292 34.0107 74.9385 34.16 74.3625 34.16C73.8932 34.16 73.4132 34.016 72.9225 33.728C72.4425 33.44 72.2025 32.9173 72.2025 32.16C72.2025 31.264 72.5545 30.6773 73.2585 30.4C73.9732 30.112 74.7305 29.968 75.5305 29.968C75.7438 29.968 75.9572 29.9733 76.1705 29.984C76.3945 29.9947 76.6025 30.0107 76.7945 30.032V29.392C76.7945 28.88 76.6825 28.464 76.4585 28.144C76.2452 27.824 75.8185 27.664 75.1785 27.664C74.6558 27.664 74.1972 27.76 73.8025 27.952L73.5305 29.184L72.6025 29.072L72.8585 27.424ZM76.7945 31.328V30.784C76.5918 30.7733 76.3785 30.7573 76.1545 30.736C75.9305 30.7147 75.7012 30.704 75.4665 30.704C74.9332 30.704 74.4478 30.7893 74.0105 30.96C73.5838 31.12 73.3705 31.4773 73.3705 32.032C73.3705 32.4907 73.5145 32.8053 73.8025 32.976C74.0905 33.1467 74.3892 33.232 74.6985 33.232C75.1892 33.232 75.6478 33.0613 76.0745 32.72C76.5118 32.3787 76.7518 31.9147 76.7945 31.328ZM83.8409 26.752C84.3529 26.752 84.7582 26.8747 85.0569 27.12L85.3289 28.912L84.4169 29.024L84.1449 27.808C83.9635 27.744 83.7822 27.712 83.6009 27.712C83.1849 27.712 82.8382 27.888 82.5609 28.24C82.2835 28.5813 82.1449 29.0293 82.1449 29.584V33.088H83.7929V34H79.7769V33.088H81.0249V27.792H79.7449V26.88H82.0809V28.16C82.2195 27.7653 82.4435 27.4347 82.7529 27.168C83.0729 26.8907 83.4355 26.752 83.8409 26.752ZM94.0659 34H90.7059V33.088H91.7779L89.8259 30.672H88.5619V33.088H89.5859V34H86.1939V33.088H87.4259V23.904H86.1619V22.992H88.5619V29.808H89.8419L91.4739 27.792H90.3699V26.88H93.6979V27.792H92.6099L90.7059 30.144L93.0579 33.088H94.0659V34ZM100.929 31.952C100.833 32.56 100.529 33.0827 100.017 33.52C99.5048 33.9467 98.8114 34.16 97.9368 34.16C96.9341 34.16 96.1234 33.8453 95.5048 33.216C94.8861 32.5867 94.5768 31.696 94.5768 30.544C94.5768 29.4347 94.8701 28.5227 95.4568 27.808C96.0434 27.0933 96.8381 26.736 97.8408 26.736C98.8221 26.736 99.5688 27.0453 100.081 27.664C100.593 28.2827 100.854 29.0133 100.865 29.856C100.865 30.1333 100.833 30.416 100.769 30.704H95.7608C95.8248 32.368 96.5768 33.2 98.0168 33.2C98.5821 33.2 99.0248 33.0667 99.3448 32.8C99.6648 32.5333 99.8781 32.1813 99.9848 31.744L100.929 31.952ZM99.6808 29.872C99.7341 29.3387 99.6061 28.8373 99.2968 28.368C98.9981 27.8987 98.5021 27.664 97.8088 27.664C97.1474 27.664 96.6621 27.8827 96.3528 28.32C96.0434 28.7573 95.8514 29.2747 95.7768 29.872H99.6808ZM107.34 32.08C107.148 33.4667 106.396 34.16 105.084 34.16C104.37 34.16 103.82 33.9573 103.436 33.552C103.063 33.1467 102.876 32.5973 102.876 31.904V27.776H101.724V26.88H102.876V24.592H103.996V26.88H106.78V27.776H103.996V31.76C103.996 32.1867 104.087 32.5333 104.268 32.8C104.46 33.056 104.77 33.184 105.196 33.184C105.474 33.184 105.73 33.0987 105.964 32.928C106.21 32.7573 106.386 32.384 106.492 31.808L107.34 32.08ZM109.102 25.04V23.584H110.318V25.04H109.102ZM111.582 34H107.966V33.088H109.214V27.792H107.934V26.88H110.334V33.088H111.582V34ZM120.93 34H117.33V33.088H118.562V29.776C118.562 29.008 118.408 28.4693 118.098 28.16C117.789 27.84 117.394 27.68 116.914 27.68C116.274 27.68 115.757 27.8933 115.362 28.32C114.978 28.736 114.776 29.216 114.754 29.76V33.088H116.002V34H112.386V33.088H113.634V27.792H112.354V26.88H114.754V28.144C115.266 27.2053 116.098 26.736 117.25 26.736C117.944 26.736 118.525 26.9493 118.994 27.376C119.464 27.8027 119.698 28.4907 119.698 29.44V33.088H120.93V34ZM129.574 27.792H128.422V33.904C128.422 35.024 128.113 35.9147 127.494 36.576C126.886 37.2373 126.027 37.568 124.918 37.568C124.171 37.568 123.499 37.3973 122.902 37.056C122.315 36.7147 121.926 36.1867 121.734 35.472L122.63 35.024C122.811 35.5787 123.126 35.9787 123.574 36.224C124.022 36.48 124.486 36.608 124.966 36.608C125.649 36.608 126.203 36.368 126.63 35.888C127.067 35.4187 127.286 34.7413 127.286 33.856V32.544C127.073 32.96 126.763 33.3227 126.358 33.632C125.953 33.9413 125.414 34.096 124.742 34.096C123.899 34.096 123.179 33.7973 122.582 33.2C121.985 32.6027 121.686 31.744 121.686 30.624C121.686 29.6747 121.942 28.7893 122.454 27.968C122.966 27.1467 123.771 26.736 124.87 26.736C126.001 26.736 126.806 27.1573 127.286 28V26.88H129.574V27.792ZM127.286 30.928V29.696C127.286 29.0987 127.078 28.6187 126.662 28.256C126.257 27.8827 125.761 27.696 125.174 27.696C124.374 27.696 123.793 27.984 123.43 28.56C123.078 29.136 122.902 29.7973 122.902 30.544C122.902 31.4187 123.099 32.0693 123.494 32.496C123.899 32.9227 124.395 33.136 124.982 33.136C125.665 33.136 126.214 32.9013 126.63 32.432C127.046 31.9627 127.265 31.4613 127.286 30.928Z" fill="#18181B"/>
<path d="M3.98438 0.25C4.28568 0.25 4.58779 0.287344 4.88379 0.360352L5.17676 0.445313L20.3779 5.5127L20.5859 5.58203C22.5537 6.32923 23.7876 8.14193 23.7549 10.2686C23.721 12.4694 22.3412 14.2926 20.2344 14.9229L17.3232 15.7949C16.5899 16.0158 16.021 16.5848 15.8027 17.3164L14.9307 20.2275C14.3012 22.3343 12.3603 23.7498 10.1982 23.75C8.10229 23.75 6.31447 22.5068 5.58203 20.5635L5.51465 20.373L0.446289 5.17188H0.447266C0.0625087 4.0176 0.246203 2.7946 0.956055 1.81055C1.66142 0.833421 2.7949 0.250053 3.98438 0.25ZM4.64355 2.04492C3.04028 1.50946 1.51436 3.03541 2.0498 4.63867L7.11816 19.8398C8.12243 22.854 12.4033 22.7852 13.3154 19.7451L14.1875 16.8359C14.5468 15.6403 15.4438 14.6894 16.6045 14.2617L16.8408 14.1826L19.749 13.3115C22.7907 12.4023 22.855 8.11703 19.8438 7.11328L4.64355 2.04492Z" fill="#A2B810" stroke="#A2B810" stroke-width="0.5"/>
<path d="M2.52344 4.48047C2.13118 3.30597 3.20155 2.1866 4.37109 2.48633L4.48438 2.51953L19.6855 7.58789C22.2356 8.43749 22.1783 12.0601 19.6045 12.832L16.6963 13.7041C15.2606 14.1354 14.1369 15.2558 13.708 16.6924L12.8359 19.6006V19.6016C12.0667 22.174 8.44164 22.2297 7.5918 19.6816L2.52344 4.48047Z" fill="#CEE727" stroke="#A2B810" stroke-width="0.5"/>
</svg>
