<svg width="29" height="29" viewBox="0 0 29 29" fill="none" xmlns="http://www.w3.org/2000/svg">
<path d="M13.1808 0.652973C13.503 -0.217645 14.7343 -0.217643 15.0565 0.652975L18.2805 9.36578C18.3818 9.63949 18.5976 9.85531 18.8713 9.95659L27.5841 13.1806C28.4548 13.5028 28.4548 14.7342 27.5841 15.0563L18.8713 18.2803C18.5976 18.3816 18.3818 18.5974 18.2805 18.8712L15.0565 27.584C14.7343 28.4546 13.503 28.4546 13.1808 27.584L9.95677 18.8712C9.85549 18.5974 9.63968 18.3816 9.36596 18.2803L0.653156 15.0563C-0.217462 14.7342 -0.21746 13.5028 0.653158 13.1806L9.36596 9.95659C9.63968 9.85531 9.85549 9.63949 9.95677 9.36578L13.1808 0.652973Z" fill="#00D5E8"/>
</svg>
